<svg xmlns="http://www.w3.org/2000/svg" version="1.1" xmlns:xlink="http://www.w3.org/1999/xlink" width="512" height="512" x="0" y="0" viewBox="0 0 512 512" style="enable-background:new 0 0 512 512" xml:space="preserve" class=""><g><path d="m177.68 255.25 27.33-119.2a8.01 8.01 0 0 1 9.58-6.01c4.3.99 6.99 5.27 6.01 9.58l-27.33 119.2a7.999 7.999 0 0 1-7.78 6.21c-.59 0-1.19-.07-1.79-.2a8 8 0 0 1-6.02-9.58zM88.43 204.4l65.45 36.57c1.23.69 2.57 1.02 3.89 1.02 2.8 0 5.52-1.48 6.99-4.1 2.15-3.85.77-8.72-3.08-10.88l-52.96-29.59 52.96-29.59c3.85-2.15 5.23-7.02 3.08-10.88-2.15-3.85-7.02-5.23-10.88-3.08l-65.45 36.57a7.98 7.98 0 0 0-4.09 6.98 7.96 7.96 0 0 0 4.09 6.98zm145.11 33.49a7.989 7.989 0 0 0 10.88 3.08l65.45-36.57c2.53-1.41 4.09-4.08 4.09-6.98s-1.57-5.57-4.09-6.98l-65.45-36.57a8.004 8.004 0 0 0-10.88 3.08c-2.15 3.85-.77 8.72 3.08 10.88l52.96 29.59-52.96 29.59c-3.85 2.15-5.23 7.02-3.08 10.88zM512 300.35v28.04c0 3.46-2.23 6.53-5.52 7.6l-17.44 5.67c-2.25 8.12-5.48 15.91-9.64 23.23l8.34 16.36c1.58 3.09.98 6.84-1.48 9.29l-19.8 19.8a7.994 7.994 0 0 1-9.29 1.48l-16.35-8.34a101.31 101.31 0 0 1-23.26 9.65l-1.35 4.12-4.3 13.29a7.994 7.994 0 0 1-7.61 5.53h-28.03c-3.47 0-6.54-2.23-7.61-5.53l-5.65-17.41c-8.13-2.24-15.93-5.47-23.26-9.65l-16.35 8.34a7.979 7.979 0 0 1-9.29-1.48l-19.8-19.8a8.01 8.01 0 0 1-1.95-8.16h-49.49l13.5 37.7h26.46c4.42 0 7.99 3.58 7.99 7.99s-3.58 7.99-7.99 7.99H115.46c-4.42 0-7.99-3.58-7.99-7.99s3.58-7.99 7.99-7.99h26.46l13.5-37.7H33.06C14.83 382.38 0 367.56 0 349.33V108.95c0-18.21 14.83-33.02 33.05-33.02h332.19c18.23 0 33.05 14.81 33.05 33.02v83.71h6.01c3.47 0 6.54 2.23 7.61 5.53l5.65 17.42c8.13 2.25 15.92 5.48 23.25 9.64l16.37-8.32a7.99 7.99 0 0 1 9.27 1.47l19.81 19.78a7.994 7.994 0 0 1 1.48 9.29l-8.34 16.35c4.19 7.37 7.42 15.16 9.65 23.25l4.12 1.35 13.29 4.3c3.3 1.09 5.54 4.16 5.54 7.63zM15.99 108.95v194h252.6v-2.61c0-3.47 2.23-6.54 5.53-7.61l17.42-5.65c2.25-8.13 5.48-15.92 9.65-23.25l-8.34-16.36a7.979 7.979 0 0 1 1.48-9.29l19.81-19.78a7.998 7.998 0 0 1 9.27-1.48l16.37 8.32c7.33-4.16 15.12-7.39 23.25-9.64l1.35-4.13 4.3-13.29a7.994 7.994 0 0 1 7.61-5.53h6.04v-83.71c0-9.39-7.66-17.04-17.06-17.04H33.06c-9.41.02-17.07 7.66-17.07 17.05zM33.06 366.4h267.36l.77-1.51a102.4 102.4 0 0 1-9.64-23.23l-17.44-5.67a7.995 7.995 0 0 1-5.52-7.6v-9.44H15.99v30.39c0 9.4 7.66 17.06 17.07 17.06zm192.85 15.98H172.4l-13.5 37.7h80.51zm270.1-76.22-16.12-5.25a8.026 8.026 0 0 1-5.31-5.83c-2.14-9.41-5.86-18.39-11.08-26.69a7.974 7.974 0 0 1-.35-7.88l7.7-15.12-11.6-11.58-15.12 7.69a7.999 7.999 0 0 1-7.88-.35 86.373 86.373 0 0 0-26.71-11.08 8.021 8.021 0 0 1-5.81-5.3l-5.25-16.12h-16.4l-5.25 16.12a8.004 8.004 0 0 1-5.81 5.3 86.716 86.716 0 0 0-26.71 11.08 7.974 7.974 0 0 1-7.88.35l-15.12-7.69-11.6 11.58 7.7 15.12a7.999 7.999 0 0 1-.35 7.88 86.615 86.615 0 0 0-11.08 26.71 8.021 8.021 0 0 1-5.3 5.81l-16.12 5.25v16.42l16.1 5.23c2.67.87 4.7 3.07 5.33 5.81a86.716 86.716 0 0 0 11.08 26.71c1.5 2.38 1.63 5.37.35 7.88l-4.95 9.71c-.06.12-.12.25-.19.37l-2.57 5.05 11.6 11.6 15.12-7.7a7.993 7.993 0 0 1 7.89.36c8.23 5.19 17.2 8.92 26.67 11.07 2.74.62 4.95 2.64 5.83 5.31l5.25 16.12h16.4l5.25-16.12a8.01 8.01 0 0 1 5.83-5.31 85.039 85.039 0 0 0 26.67-11.07 7.993 7.993 0 0 1 7.89-.36l15.12 7.7 11.6-11.6-7.7-15.12a7.999 7.999 0 0 1 .35-7.88c5.17-8.24 8.9-17.22 11.08-26.71a7.971 7.971 0 0 1 5.33-5.81l16.1-5.23v-16.43zm-56.3 8.22c0 27.24-22.16 49.41-49.41 49.41-27.26 0-49.44-22.16-49.44-49.41 0-27.26 22.18-49.44 49.44-49.44 27.25 0 49.41 22.18 49.41 49.44zm-15.98 0c0-18.44-14.99-33.45-33.42-33.45-18.44 0-33.45 15.01-33.45 33.45 0 18.43 15.01 33.42 33.45 33.42 18.42 0 33.42-14.99 33.42-33.42z" fill="#4ade80" opacity="1" data-original="#000000" class=""></path></g></svg>