<svg xmlns="http://www.w3.org/2000/svg" version="1.1" xmlns:xlink="http://www.w3.org/1999/xlink" width="512" height="512" x="0" y="0" viewBox="0 0 128 128" style="enable-background:new 0 0 512 512" xml:space="preserve" class=""><g><path d="M128 65c0 15.439-12.563 28-28 28H80c-2.211 0-4-1.791-4-4s1.789-4 4-4h20c11.027 0 20-8.973 20-20s-8.973-20-20-20h-4c-2.211 0-4-1.791-4-4 0-15.439-12.563-28-28-28S36 25.561 36 41c0 2.209-1.789 4-4 4h-4C16.973 45 8 53.973 8 65s8.973 20 20 20h20c2.211 0 4 1.791 4 4s-1.789 4-4 4H28C12.563 93 0 80.439 0 65s12.563-28 28-28h.223C30.219 19.025 45.5 5 64 5s33.781 14.025 35.777 32H100c15.438 0 28 12.561 28 28zm-50.828 37.172L68 111.344V61c0-2.209-1.789-4-4-4s-4 1.791-4 4v50.344l-9.172-9.172c-1.563-1.563-4.094-1.563-5.656 0s-1.563 4.094 0 5.656l16 16c.781.781 1.805 1.172 2.828 1.172s2.047-.391 2.828-1.172l16-16c1.563-1.563 1.563-4.094 0-5.656s-4.094-1.563-5.656 0z" fill="#ffffff" opacity="1" data-original="#000000" class=""></path></g></svg>