<svg xmlns="http://www.w3.org/2000/svg" version="1.1" xmlns:xlink="http://www.w3.org/1999/xlink" width="512" height="512" x="0" y="0" viewBox="0 0 68 68" style="enable-background:new 0 0 512 512" xml:space="preserve" class=""><g><path d="m17.9 17.7 5-6.6c.2-.3.6-.4 1-.4s.7.3.8.7l4.6 15.8L33 15.1c.1-.4.5-.7 1-.7.4 0 .8.3.9.8l1.5 7.1h8c.5 0 1 .4 1 1 0 .5-.4 1-1 1h-8.8c-.5 0-.9-.3-1-.8l-.9-4.3-3.6 11.6c-.1.4-.5.7-.9.7s-.8-.3-.9-.7l-5-17-4.1 5.4c-.2.3-.5.4-.8.4H9.6c0 .1 0 .2.1.3C12 30.6 23.6 38.4 32.9 43.1c.3.1.6.1.9 0 4.6-2.3 9.9-5.5 14.2-9.4 4.1-3.6 7.4-8 8.7-12.9h.2c5 0 9.1-4.1 9.1-9.1s-4.1-9.1-9.1-9.1c-2.4 0-4.5.9-6.1 2.4-2.6-1.6-5.6-2.2-8.6-1.7-3.5.5-6.6 2.5-8.9 5.5-2.2-3-5.4-5-8.9-5.5-3.8-.6-7.5.5-10.5 3.2-3.1 2.7-4.8 6.9-4.5 11.2zm39-13c3.9 0 7.1 3.2 7.1 7.1s-3.2 7.1-7.1 7.1-7.1-3.2-7.1-7.1c0-4 3.2-7.1 7.1-7.1z" fill="#4ade80" opacity="1" data-original="#000000" class=""></path><path d="M61 47.9h-.2v-1.2c0-2.7-2.2-4.9-4.9-4.9-1.1 0-2.1.3-2.9.9v-.3c0-2.7-2.2-4.9-4.9-4.9s-4.9 2.2-4.9 4.9v5.4h-20v-5.4c0-2.7-2.2-4.9-4.9-4.9s-4.9 2.2-4.9 4.9v.3c-.8-.6-1.8-.9-2.9-.9-2.7 0-4.9 2.2-4.9 4.9v1.2c-2 0-3.6 1.6-3.6 3.6s1.6 3.6 3.6 3.6h.2v1.2c0 2.7 2.2 4.9 4.9 4.9 1.1 0 2-.3 2.9-.9v.2c0 2.7 2.2 4.9 4.9 4.9s4.9-2.2 4.9-4.9v-5.4h20.1v5.4c0 2.7 2.2 4.9 4.9 4.9s4.9-2.2 4.9-4.9v-.2c.8.6 1.8.9 2.9.9 2.7 0 4.9-2.2 4.9-4.9v-1.2H61c2 0 3.6-1.6 3.6-3.6S63 47.9 61 47.9zM21.2 60.5c0 1.6-1.3 2.9-2.9 2.9s-2.8-1.3-2.8-2.9v-18c0-1.6 1.3-2.8 2.8-2.8s2.9 1.3 2.9 2.8zm-10.6-1.4c-1.6 0-2.8-1.3-2.8-2.8v-9.6c0-1.6 1.3-2.8 2.8-2.8 1.6 0 2.9 1.3 2.9 2.8v9.6c0 1.6-1.3 2.8-2.9 2.8zm48.2-2.8c0 1.6-1.3 2.8-2.8 2.8-1.6 0-2.9-1.3-2.9-2.8v-9.6c0-1.6 1.3-2.8 2.9-2.8s2.8 1.3 2.8 2.8v9.6zm-7.7 4.2c0 1.6-1.3 2.9-2.8 2.9-1.6 0-2.9-1.3-2.9-2.9v-18c0-1.6 1.3-2.8 2.9-2.8s2.8 1.3 2.8 2.8zM53.6 13.5c.3.5.9.6 1.4.4l1.2-.7v1.3c0 .6.5 1 1 1 .6 0 1-.5 1-1v-1.2l1.1.6c.4.3 1.1.1 1.4-.4s.1-1.1-.4-1.4l-1.1-.7 1.1-.7c.5-.3.7-.9.4-1.4s-.9-.7-1.4-.4l-1.1.6V8.2c0-.6-.5-1-1-1-.6 0-1 .5-1 1v1.5L55 9c-.6-.3-1.1-.1-1.4.4s-.1 1.1.4 1.4l1.1.7-1.1.6c-.5.2-.7.9-.4 1.4z" fill="#4ade80" opacity="1" data-original="#000000" class=""></path></g></svg>