<svg version="1.1" id="Layer_1" xmlns="http://www.w3.org/2000/svg" xmlns:xlink="http://www.w3.org/1999/xlink" x="0px" y="0px"
	 width="100%" viewBox="0 0 768 469" enable-background="new 0 0 768 469" xml:space="preserve">
<path fill="" opacity="0" stroke="none" 
	d="
M1.000002,377.000000 
	C1.000000,251.741302 1.000000,126.482590 1.000000,1.000000 
	C117.355881,1.000000 233.711914,1.000000 350.855774,1.345743 
	C350.966156,2.116000 350.321869,2.842264 349.606415,2.920914 
	C331.573334,4.903310 314.387970,9.791057 297.572998,16.644293 
	C268.273773,28.585699 245.230164,48.241470 227.213806,73.666321 
	C212.121140,94.965256 202.302094,118.999542 195.058029,144.048508 
	C194.563416,145.758850 194.309692,147.538696 193.939789,149.285324 
	C193.578262,150.992401 193.211411,152.698380 193.052399,153.442810 
	C203.490875,143.007858 213.688995,131.787827 224.965515,121.783310 
	C241.436539,107.170273 260.580353,97.692551 282.796143,94.905457 
	C299.321045,92.832306 315.434784,93.975998 331.412323,98.723610 
	C349.392242,104.066185 364.104980,114.725044 377.511688,127.183594 
	C396.348572,144.688248 414.392853,163.045700 433.222900,180.557968 
	C447.220520,193.575958 463.338135,203.649475 480.579071,211.976730 
	C509.796417,226.088501 541.009949,230.804062 572.983398,231.922043 
	C579.055908,232.134384 585.175598,231.475266 591.252869,230.969452 
	C602.033203,230.072189 612.942627,229.771210 623.540039,227.819687 
	C649.113831,223.110260 673.210510,214.410599 694.550293,198.991974 
	C716.027161,183.474319 733.056702,164.080917 745.588928,140.798386 
	C754.433350,124.367218 761.654175,107.235687 766.494629,89.151558 
	C766.812805,87.962677 768.141357,87.044220 769.000000,85.999985 
	C769.000000,213.955276 769.000000,341.910553 769.000000,469.932922 
	C513.000000,469.932922 257.000000,469.932922 1.000000,469.932922 
	C1.000000,441.912476 1.000000,413.922272 1.334041,385.377991 
	C6.236223,379.256989 10.480490,373.381073 15.437969,368.185730 
	C26.776869,356.302612 39.012066,345.612946 53.635517,337.596283 
	C68.651115,329.364777 84.393661,324.615814 101.389343,324.083862 
	C107.463951,323.893707 113.715500,323.949066 119.626945,325.159241 
	C129.716064,327.224731 139.908310,329.478607 149.502014,333.117218 
	C165.817245,339.305115 178.699463,350.858948 191.162674,362.706635 
	C208.232361,378.933167 224.609909,395.938690 242.333160,411.408478 
	C253.641846,421.279358 266.276184,429.975159 279.320557,437.443573 
	C307.985596,453.855408 339.682190,460.393646 372.330139,461.783417 
	C386.792419,462.399109 401.368805,460.892426 415.867432,459.949219 
	C432.673248,458.855957 448.863586,454.764374 464.666107,449.002777 
	C494.096161,438.272614 518.478455,420.540253 537.560669,395.784058 
	C552.538879,376.352051 563.177795,354.524811 570.890991,331.287262 
	C573.363159,323.839478 575.291504,316.211182 577.468628,308.665466 
	C575.705872,308.971100 574.812988,309.658813 574.055969,310.472900 
	C565.681458,319.478638 557.877563,329.109985 548.801392,337.339142 
	C541.037231,344.378754 532.333618,350.757629 523.140137,355.767151 
	C504.003418,366.194733 483.486572,370.801300 461.390381,368.161591 
	C447.499451,366.502136 434.140991,363.467255 421.888733,356.870636 
	C408.149567,349.473419 396.348328,339.315277 385.101318,328.575256 
	C367.950043,312.197174 351.504303,295.011169 333.570770,279.546051 
	C321.854065,269.442047 308.605560,260.723114 294.982666,253.340744 
	C283.444489,247.088074 270.525787,243.215271 257.961517,239.065918 
	C242.076019,233.819717 225.458527,231.769516 208.848999,231.155365 
	C184.481506,230.254364 160.178574,230.976807 136.227051,236.883713 
	C117.548561,241.490219 99.685181,247.828583 83.406975,258.146210 
	C69.084618,267.224152 55.675659,277.538605 45.432850,291.219269 
	C37.658951,301.602325 29.891298,312.126099 23.485182,323.364929 
	C14.166627,339.713318 7.691592,357.386536 2.914865,375.635071 
	C2.762476,376.217224 1.659722,376.550629 1.000002,377.000000 
z"/>
<path fill="#38BDF8" opacity="1.000000" stroke="none" 
	d="
M769.000000,85.550011 
	C768.141357,87.044220 766.812805,87.962677 766.494629,89.151558 
	C761.654175,107.235687 754.433350,124.367218 745.588928,140.798386 
	C733.056702,164.080917 716.027161,183.474319 694.550293,198.991974 
	C673.210510,214.410599 649.113831,223.110260 623.540039,227.819687 
	C612.942627,229.771210 602.033203,230.072189 591.252869,230.969452 
	C585.175598,231.475266 579.055908,232.134384 572.983398,231.922043 
	C541.009949,230.804062 509.796417,226.088501 480.579071,211.976730 
	C463.338135,203.649475 447.220520,193.575958 433.222900,180.557968 
	C414.392853,163.045700 396.348572,144.688248 377.511688,127.183594 
	C364.104980,114.725044 349.392242,104.066185 331.412323,98.723610 
	C315.434784,93.975998 299.321045,92.832306 282.796143,94.905457 
	C260.580353,97.692551 241.436539,107.170273 224.965515,121.783310 
	C213.688995,131.787827 203.490875,143.007858 193.052399,153.442810 
	C193.211411,152.698380 193.578262,150.992401 193.939789,149.285324 
	C194.309692,147.538696 194.563416,145.758850 195.058029,144.048508 
	C202.302094,118.999542 212.121140,94.965256 227.213806,73.666321 
	C245.230164,48.241470 268.273773,28.585699 297.572998,16.644293 
	C314.387970,9.791057 331.573334,4.903310 349.606415,2.920914 
	C350.321869,2.842264 350.966156,2.116000 351.321777,1.345743 
	C373.354218,1.000000 395.708466,1.000000 418.186859,1.327261 
	C418.978394,2.090516 419.617249,2.853355 420.317291,2.914394 
	C435.298859,4.220592 449.651947,8.190346 463.810272,13.021495 
	C491.387634,22.431526 515.075195,38.286686 536.222046,57.903065 
	C553.403625,73.841156 569.450562,91.005707 586.699768,106.866135 
	C594.659058,114.184708 603.843445,120.464066 613.253540,125.849648 
	C631.677185,136.393890 651.802917,139.727097 673.000488,138.111176 
	C690.578918,136.771149 706.551575,131.176483 721.385986,122.050240 
	C740.374451,110.368408 755.240295,94.249825 769.000000,77.000000 
	C769.000000,79.700012 769.000000,82.400032 769.000000,85.550011 
z"/>
<path fill="#38BDF8" opacity="1.000000" stroke="none" 
	d="
M1.000002,377.444153 
	C1.659722,376.550629 2.762476,376.217224 2.914865,375.635071 
	C7.691592,357.386536 14.166627,339.713318 23.485182,323.364929 
	C29.891298,312.126099 37.658951,301.602325 45.432850,291.219269 
	C55.675659,277.538605 69.084618,267.224152 83.406975,258.146210 
	C99.685181,247.828583 117.548561,241.490219 136.227051,236.883713 
	C160.178574,230.976807 184.481506,230.254364 208.848999,231.155365 
	C225.458527,231.769516 242.076019,233.819717 257.961517,239.065918 
	C270.525787,243.215271 283.444489,247.088074 294.982666,253.340744 
	C308.605560,260.723114 321.854065,269.442047 333.570770,279.546051 
	C351.504303,295.011169 367.950043,312.197174 385.101318,328.575256 
	C396.348328,339.315277 408.149567,349.473419 421.888733,356.870636 
	C434.140991,363.467255 447.499451,366.502136 461.390381,368.161591 
	C483.486572,370.801300 504.003418,366.194733 523.140137,355.767151 
	C532.333618,350.757629 541.037231,344.378754 548.801392,337.339142 
	C557.877563,329.109985 565.681458,319.478638 574.055969,310.472900 
	C574.812988,309.658813 575.705872,308.971100 577.468628,308.665466 
	C575.291504,316.211182 573.363159,323.839478 570.890991,331.287262 
	C563.177795,354.524811 552.538879,376.352051 537.560669,395.784058 
	C518.478455,420.540253 494.096161,438.272614 464.666107,449.002777 
	C448.863586,454.764374 432.673248,458.855957 415.867432,459.949219 
	C401.368805,460.892426 386.792419,462.399109 372.330139,461.783417 
	C339.682190,460.393646 307.985596,453.855408 279.320557,437.443573 
	C266.276184,429.975159 253.641846,421.279358 242.333160,411.408478 
	C224.609909,395.938690 208.232361,378.933167 191.162674,362.706635 
	C178.699463,350.858948 165.817245,339.305115 149.502014,333.117218 
	C139.908310,329.478607 129.716064,327.224731 119.626945,325.159241 
	C113.715500,323.949066 107.463951,323.893707 101.389343,324.083862 
	C84.393661,324.615814 68.651115,329.364777 53.635517,337.596283 
	C39.012066,345.612946 26.776869,356.302612 15.437969,368.185730 
	C10.480490,373.381073 6.236223,379.256989 1.334041,384.911926 
	C1.000000,382.629425 1.000000,380.258881 1.000002,377.444153 
z"/>
<path fill="" opacity="0" stroke="none" 
	d="
M769.000000,76.531342 
	C755.240295,94.249825 740.374451,110.368408 721.385986,122.050240 
	C706.551575,131.176483 690.578918,136.771149 673.000488,138.111176 
	C651.802917,139.727097 631.677185,136.393890 613.253540,125.849648 
	C603.843445,120.464066 594.659058,114.184708 586.699768,106.866135 
	C569.450562,91.005707 553.403625,73.841156 536.222046,57.903065 
	C515.075195,38.286686 491.387634,22.431526 463.810272,13.021495 
	C449.651947,8.190346 435.298859,4.220592 420.317291,2.914394 
	C419.617249,2.853355 418.978394,2.090516 418.655518,1.327261 
	C535.546753,1.000000 652.093506,1.000000 769.000000,1.000000 
	C769.000000,26.019745 769.000000,51.041214 769.000000,76.531342 
z"/>
</svg>