<svg xmlns="http://www.w3.org/2000/svg" version="1.1" xmlns:xlink="http://www.w3.org/1999/xlink" width="512" height="512" x="0" y="0" viewBox="0 0 1707 1707" style="enable-background:new 0 0 512 512" xml:space="preserve" fill-rule="evenodd" class=""><g><path fill="#ffffff" d="M1128 1066c-312 0-564-253-564-564 0 311-253 564-564 564 311 0 564 252 564 563 0-311 252-563 564-563z" opacity="1" data-original="#ffd93b" class=""></path><g fill="#ffb030"><path d="M1707 1357c-171 0-309-139-309-309 0 170-139 309-309 309 170 0 309 138 309 309 0-171 138-309 309-309zM1529 417c-208 0-376-168-376-376 0 208-168 376-376 376 208 0 376 168 376 376 0-208 168-376 376-376z" fill="#ffffff" opacity="1" data-original="#ffb030" class=""></path></g></g></svg>